<svg xmlns="http://www.w3.org/2000/svg" viewBox="0 0 1200 800" width="1200" height="800">
  <defs>
    <radialGradient id="vig" cx="58%" cy="62%" r="75%">
      <stop offset="0%" stop-color="#1a1510"/>
      <stop offset="60%" stop-color="#141009"/>
      <stop offset="100%" stop-color="#0f0f0e"/>
    </radialGradient>
    <filter id="riverGlow" x="-20%" y="-20%" width="140%" height="140%">
      <feGaussianBlur stdDeviation="6" result="b"/><feMerge><feMergeNode in="b"/><feMergeNode in="SourceGraphic"/></feMerge>
    </filter>
    <linearGradient id="riverFill" x1="0" y1="0" x2="1" y2="0">
      <stop offset="0%" stop-color="#16323d"/><stop offset="100%" stop-color="#1d3a45"/>
    </linearGradient>
  </defs>
  <rect width="1200" height="800" fill="url(#vig)"/>
  <g stroke="#5b4a36" stroke-width="1" fill="none" opacity="0.55" stroke-linecap="round">
    <path d="M -20 17.415103048745124 C 396 12.949223255714971, 792 21.88098284177528, 1220 20.962050889601024"/>
    <path d="M -20 50.96992302172348 C 396 44.94932223015899, 792 56.99052381328797, 1220 46.91508817948172"/>
    <path d="M -20 76.11473679547885 C 396 72.04387832947256, 792 80.18559526148513, 1220 78.41767907488052"/>
    <path d="M -20 109.93770599548598 C 396 103.65000725381543, 792 116.22540473715654, 1220 109.31185722738125"/>
    <path d="M -20 140.8674392722861 C 396 150.53595162813363, 792 131.19892691643858, 1220 137.02494240087688"/>
    <path d="M -20 172.35228753385707 C 396 168.49186278204056, 792 176.21271228567358, 1220 168.50931263319652"/>
    <path d="M -20 200.2993729134553 C 396 214.2821433699141, 792 186.3166024569965, 1220 197.3476579218859"/>
    <path d="M -20 227.48452210495458 C 396 233.46233452412406, 792 221.5067096857851, 1220 229.32595277220287"/>
    <path d="M -20 260.3227996846301 C 396 271.0075760027429, 792 249.6380233665174, 1220 261.4074897814577"/>
    <path d="M -20 293.8584594763156 C 396 302.4492530969201, 792 285.26766585571113, 1220 298.8129501425721"/>
    <path d="M -20 317.0472564702142 C 396 331.1779641649583, 792 302.9165487754701, 1220 313.3205392371493"/>
    <path d="M -20 349.08352589750825 C 396 344.0893170894539, 792 354.0777347055626, 1220 345.2359721680339"/>
    <path d="M -20 382.3810560732992 C 396 385.4055042380493, 792 379.3566079085491, 1220 378.46507501949793"/>
    <path d="M -20 407.9537441739597 C 396 422.1683361675443, 792 393.73915218037513, 1220 411.7415287544679"/>
    <path d="M -20 443.88079834351356 C 396 454.3369789278773, 792 433.42461775914984, 1220 442.6266403252383"/>
    <path d="M -20 466.21559143076445 C 396 475.32508929461477, 792 457.1060935669141, 1220 467.7705669434604"/>
    <path d="M -20 500.3946914693316 C 396 512.472070708625, 792 488.3173122300381, 1220 502.4923267418017"/>
    <path d="M -20 528.3786849986662 C 396 535.3489666098491, 792 521.4084033874834, 1220 524.5766429917778"/>
    <path d="M -20 712.5058307678 C 396 721.1844935557733, 792 703.8271679798268, 1220 712.69757891246"/>
    <path d="M -20 738.5320072185863 C 396 741.7530684567769, 792 735.3109459803957, 1220 735.8850007079938"/>
    <path d="M -20 770.5902578852094 C 396 757.2826852827718, 792 783.8978304876471, 1220 766.7223470833723"/>
    <path d="M 12.632652762640571 -20 C 9.242898948603727 264, 16.022406576677415 528, 11.548109535848774 820"/>
    <path d="M 43.875654221454475 -20 C 39.845110242648566 264, 47.906198200260384 528, 42.37897396291559 820"/>
    <path d="M 78.52547168756159 -20 C 71.27833658749161 264, 85.77260678763157 528, 76.5384345066447 820"/>
    <path d="M 119.4420456911633 -20 C 123.95576239701163 264, 114.92832898531498 528, 115.6005959536883 820"/>
    <path d="M 157.71366522075314 -20 C 151.09550211489923 264, 164.33182832660705 528, 161.25656149501754 820"/>
    <path d="M 188.22847366436778 -20 C 190.06727314790118 264, 186.3896741808344 528, 190.98300934256193 820"/>
    <path d="M 224.31279373276644 -20 C 229.0571336839614 264, 219.56845378157146 528, 228.1553115892016 820"/>
    <path d="M 259.73097610554237 -20 C 247.7297037256554 264, 271.7322484854293 528, 260.003055098468 820"/>
    <path d="M 300.3424472838372 -20 C 290.80078554609827 264, 309.88410902157614 528, 299.11011147923307 820"/>
    <path d="M 337.23782062867554 -20 C 326.18697572182253 264, 348.28866553552854 528, 333.5934164559438 820"/>
    <path d="M 366.2662167550373 -20 C 377.71055359798976 264, 354.82187991208485 528, 370.1284565963449 820"/>
    <path d="M 402.6892662051549 -20 C 405.6065977293097 264, 399.7719346810001 528, 406.2107114830104 820"/>
    <path d="M 442.6818189642773 -20 C 452.4459493288053 264, 432.9176885997493 528, 442.597669605444 820"/>
    <path d="M 479.6583318736676 -20 C 469.7588985007065 264, 489.55776524662866 528, 481.6529600674533 820"/>
    <path d="M 514.868986132028 -20 C 520.9938483349949 264, 508.744123929061 528, 515.6908073470419 820"/>
    <path d="M 546.9545345310842 -20 C 554.8839419586044 264, 539.0251271035639 528, 545.5176305787254 820"/>
    <path d="M 583.6543703086927 -20 C 595.5744543795355 264, 571.7342862378499 528, 580.900906564156 540"/>
    <path d="M 618.7084352973422 -20 C 626.3435112337319 264, 611.0733593609526 528, 614.9961760048737 540"/>
    <path d="M 655.2202284341772 -20 C 664.5479155888538 264, 645.8925412795006 528, 655.9288656739187 540"/>
    <path d="M 696.8098640473605 -20 C 700.5163622011972 264, 693.1033658935238 528, 697.3447647147555 540"/>
    <path d="M 728.7007026684939 -20 C 733.6000642872416 264, 723.8013410497463 528, 726.1955337543951 540"/>
    <path d="M 765.2237436786404 -20 C 770.7344484430432 264, 759.7130389142376 528, 765.4393684898686 540"/>
    <path d="M 802.2243413944842 -20 C 811.0876872661 264, 793.3609955228684 528, 804.0093441056131 540"/>
    <path d="M 835.1244230275622 -20 C 822.6644425995948 264, 847.5844034555296 528, 834.8348936759098 540"/>
    <path d="M 874.6699991247942 -20 C 867.9991486123758 264, 881.3408496372126 528, 878.1094150599602 540"/>
    <path d="M 912.5287065536384 -20 C 901.8572084944963 264, 923.2002046127805 528, 909.3140432868685 540"/>
    <path d="M 943.1743817334875 -20 C 935.8605760963916 264, 950.4881873705834 528, 944.8900380166666 540"/>
    <path d="M 978.7311897281237 -20 C 977.4188745675697 264, 980.0435048886777 528, 982.4475736657379 540"/>
    <path d="M 1017.4652891175194 -20 C 1029.602823032347 264, 1005.327755202692 528, 1020.1728496598885 820"/>
    <path d="M 1057.8179922140287 -20 C 1062.5456199764951 264, 1053.0903644515622 528, 1056.420321469391 820"/>
    <path d="M 1090.4644813558386 -20 C 1086.864083296556 264, 1094.0648794151214 528, 1094.3670120296845 820"/>
    <path d="M 1126.6083107016088 -20 C 1134.9086771132 264, 1118.3079442900178 528, 1123.9410476712235 820"/>
    <path d="M 1160.860172511479 -20 C 1148.7613382356994 264, 1172.9590067872587 528, 1159.4711375261988 820"/>
    <path d="M 1194.5633716585876 -20 C 1199.6425698486355 264, 1189.4841734685397 528, 1196.3492879897121 820"/>
    <path d="M 93.58585835135814 -10 L 313.8156914775333 400"/>
    <path d="M 285.61501131654484 -10 L 558.8535343477752 400"/>
    <path d="M 479.2594957534501 -10 L 721.4161443996319 400"/>
    <path d="M 651.8566703944731 -10 L 900.1638317388314 400"/>
    <path d="M 834.4189262550412 -10 L 1086.342420608896 400"/>
    <path d="M 1017.830791491005 -10 L 1239.7817516512155 400"/>
  </g>
  <g fill="#3d4128" opacity="0.5">
    <path d="M 180 180 q 60 -30 110 6 q 20 70 -34 96 q -76 14 -90 -40 z"/>
    <path d="M 1010 250 q 50 -10 70 30 q 6 56 -44 64 q -52 -4 -52 -52 z"/>
  </g>
  <!-- river: deep band, wide, with a soft edge -->
  <path d="M -50 560 C 220 520, 360 660, 600 640 S 980 560, 1260 600" stroke="url(#riverFill)" stroke-width="46" fill="none" stroke-linecap="round" opacity="0.95"/>
  <path d="M -50 560 C 220 520, 360 660, 600 640 S 980 560, 1260 600" stroke="#2a5562" stroke-width="48" fill="none" stroke-linecap="round" opacity="0.25"/>
  <!-- own-shore stretch: glows gold -->
  <path d="M 600 640 C 740 632, 860 600, 980 588" stroke="#E8C9A0" stroke-width="3.5" fill="none" stroke-linecap="round" filter="url(#riverGlow)" opacity="0.9" stroke-dasharray="2 7"/>
  <!-- dead-end street to the plot (warmer, thicker) -->
  <path d="M 760 300 C 800 380, 840 460, 880 540" stroke="#7a6647" stroke-width="3" fill="none" stroke-linecap="round" opacity="0.8"/>
</svg>